<svg xmlns="http://www.w3.org/2000/svg" version="1.1" xmlns:xlink="http://www.w3.org/1999/xlink" xmlns:svgjs="http://svgjs.com/svgjs" width="256" height="256" x="0" y="0" viewBox="0 0 24 24" style="enable-background:new 0 0 512 512" xml:space="preserve"><g><path d="M19 1H5a5.006 5.006 0 0 0-5 5v12a5.006 5.006 0 0 0 5 5h14a5.006 5.006 0 0 0 5-5V6a5.006 5.006 0 0 0-5-5ZM5 3h14a3 3 0 0 1 2.78 1.887l-7.658 7.659a3.007 3.007 0 0 1-4.244 0L2.22 4.887A3 3 0 0 1 5 3Zm14 18H5a3 3 0 0 1-3-3V7.5l6.464 6.46a5.007 5.007 0 0 0 7.072 0L22 7.5V18a3 3 0 0 1-3 3Z" fill="#0c2052" data-original="#000000"></path></g></svg>